<svg width="100" height="100" viewBox="0 0 100 100" fill="none" xmlns="http://www.w3.org/2000/svg">
<path d="M1.5 50C1.5 23.2142 23.2142 1.5 50 1.5C76.7858 1.5 98.5 23.2142 98.5 50C98.5 76.7858 76.7858 98.5 50 98.5C23.2142 98.5 1.5 76.7858 1.5 50Z" fill="white" stroke="#2680EB" stroke-width="3"/>
<path fill-rule="evenodd" clip-rule="evenodd" d="M60.6679 32.6585C57.4063 30.7685 54.5997 29.8835 52.2814 30.0118C48.7931 30.2068 45.7265 32.0668 46.2465 38.1617C45.5898 34.3834 43.2182 31.1985 40.4132 31.7135C36.6899 32.3968 37.6649 37.2167 38.0216 41.2233C38.3399 44.8149 38.7016 48.8865 36.8549 52.0598L32 60.378L48.8497 69.9996L53.6947 61.693C56.0763 57.6347 58.7863 55.6414 61.4112 53.7115C63.1912 52.3998 68.6661 48.7149 68.6661 43.39C68.6661 38.9817 64.9145 35.1201 60.6679 32.6585M47.6348 65.458L36.5833 59.1464L38.9016 55.1731L49.9531 61.4847L47.6348 65.458Z" fill="#323232"/>
</svg>
