<svg xmlns="http://www.w3.org/2000/svg" width="53.333" height="40" viewBox="0 0 53.333 40">
  <path id="iconmonstr-cloud-4" d="M33.333,14.111A12.291,12.291,0,0,0,20.869,25.5,8.8,8.8,0,0,0,22.5,43H44.167A8.8,8.8,0,0,0,45.8,25.5,12.291,12.291,0,0,0,33.333,14.111ZM9.113,31.884A9,9,0,0,1,0,23.062a8.921,8.921,0,0,1,7.536-8.678A12.291,12.291,0,0,1,20,3,12.509,12.509,0,0,1,31.251,9.84,17,17,0,0,0,26.8,11,7.37,7.37,0,0,0,20,7.444c-8.6,0-8.507,8.944-8.224,10.716-2.364.122-7.331.589-7.331,4.9a4.567,4.567,0,0,0,4.722,4.382H10.8a12.951,12.951,0,0,0-1.684,4.44Z" transform="translate(0 -3)" fill="#323232"/>
</svg>
