<svg xmlns="http://www.w3.org/2000/svg" width="40" height="40" viewBox="0 0 40 40">
  <path id="iconmonstr-weather-104" d="M37.668,8.268,40,10.625l-5.44,5.463c-2.585,2.585-4.227,7.1-4.668,10.733A15,15,0,1,1,13.177,10.1c3.64-.442,8.148-2.075,10.74-4.668L29.38,0l2.357,2.332L26.275,7.793c-3.1,3.1-8.34,5.093-12.7,5.62A11.67,11.67,0,1,0,23.26,33.242c5.32-5.32,1.442-12.01,8.943-19.512l5.465-5.462ZM40,2.357,37.643,0,21.88,15.768l2.357,2.357L40,2.357ZM24.167,25A9.167,9.167,0,1,1,15,15.833,9.167,9.167,0,0,1,24.167,25Zm-12.083-.833a1.25,1.25,0,1,0-1.25,1.25A1.25,1.25,0,0,0,12.083,24.167Zm4.583,4.167A1.667,1.667,0,1,0,15,30,1.667,1.667,0,0,0,16.667,28.333ZM20,22.5A2.5,2.5,0,1,0,17.5,25,2.5,2.5,0,0,0,20,22.5Z" fill="#323232"/>
</svg>
