<svg xmlns="http://www.w3.org/2000/svg" width="130" height="33.245" viewBox="0 0 130 33.245">
  <g id="Сгруппировать_1170" data-name="Сгруппировать 1170" transform="translate(0 0.007)">
    <path id="Контур_1" data-name="Контур 1" d="M15.3.425h8.479V24.019H15.729V19.534h-.246c-1.029,3.011-3.733,4.792-7.25,4.792C3.272,24.326.015,20.64,0,15.478V.425H8.479V13.7c.015,2.335,1.244,3.748,3.379,3.748,2.1,0,3.456-1.413,3.441-3.748Z" transform="translate(0 -0.12)" fill="#323232"/>
    <path id="Контур_2" data-name="Контур 2" d="M52.236,7.987c-.123-1.444-1.521-2.335-3.195-2.335-1.459,0-2.673.553-2.642,1.536-.031.691.476,1.336,2.273,1.659l4.793.86c4.823.876,7.158,2.9,7.189,6.39-.031,5.054-4.839,8.233-11.367,8.233-7.219,0-11.4-3.21-11.859-8.049h8.418c.23,1.505,1.582,2.335,3.5,2.335,1.551,0,2.673-.553,2.7-1.536-.031-.891-.86-1.382-2.7-1.72l-4.178-.737c-4.808-.845-7.219-3.226-7.189-6.943C37.95,2.765,42.113,0,48.856,0c6.82,0,10.967,3,11.182,7.987Z" transform="translate(-10.397 -0.002)" fill="#2680eb"/>
    <path id="Контур_3" data-name="Контур 3" d="M72.56,17.388c0-5.177,3.794-7.143,8.663-7.5C85.186,9.6,86.692,9.17,86.692,7.8V7.741c0-1.229-1.045-1.9-2.519-1.9-1.613,0-2.688.691-2.888,2.151h-7.8C73.773,3.687,77.245,0,84.3,0c6.743,0,10.875,3.379,10.875,7.741V23.9H87.245V20.583H87.06c-1.428,2.642-3.748,3.687-6.82,3.687C75.725,24.27,72.56,22.088,72.56,17.388Zm14.193-1.843V13.579a15.37,15.37,0,0,1-3.379.86c-1.966.307-2.826,1.244-2.826,2.458,0,1.321,1.014,2.028,2.458,2.028a3.485,3.485,0,0,0,3.748-3.379Z" transform="translate(-20.156 -0.002)" fill="#2680eb"/>
    <path id="Контур_4" data-name="Контур 4" d="M109.01,25.435h8.172c.246,1.505,1.674,2.089,3.625,2.089,2.2,0,3.809-.906,3.809-3.687V19.844h-.245c-.922,2.4-3.441,3.748-6.636,3.748-5.038,0-9.278-3.318-9.278-11.49C108.457,3.562,113,0,117.673,0a6.8,6.8,0,0,1,6.636,4.424h.184V.305h8.479V23.838c0,5.991-4.946,9.4-12.411,9.4C113.465,33.238,109.332,29.982,109.01,25.435ZM124.616,12.1c0-3.5-1.413-5.591-3.748-5.591S117.182,8.6,117.182,12.1s1.352,5.468,3.687,5.468S124.616,15.543,124.616,12.1Z" transform="translate(-30.127)" fill="#2680eb"/>
    <path id="Контур_5" data-name="Контур 5" d="M147.161,12.165C147.161,4.854,151.831,0,159.143,0c7.127,0,11.735,4.593,11.735,12.1V14.07H155.517v.369a3.725,3.725,0,0,0,3.994,3.932,3.6,3.6,0,0,0,3.625-2.089h7.742c-.8,4.915-5.008,8.049-11.551,8.049C151.77,24.331,147.161,19.8,147.161,12.165ZM163.075,9.4a3.53,3.53,0,0,0-3.748-3.441,3.593,3.593,0,0,0-3.81,3.441Z" transform="translate(-40.878 -0.002)" fill="#2680eb"/>
  </g>
</svg>
