<svg width="100" height="100" viewBox="0 0 100 100" fill="none" xmlns="http://www.w3.org/2000/svg">
<path d="M1.5 50C1.5 23.2142 23.2142 1.5 50 1.5C76.7858 1.5 98.5 23.2142 98.5 50C98.5 76.7858 76.7858 98.5 50 98.5C23.2142 98.5 1.5 76.7858 1.5 50Z" fill="white" stroke="#2680EB" stroke-width="3"/>
<path fill-rule="evenodd" clip-rule="evenodd" d="M50 52.5C50 51.1183 48.8817 50 47.5 50C46.1183 50 45 51.1183 45 52.5C45 53.8817 46.1183 55 47.5 55C48.8817 55 50 53.8817 50 52.5ZM46.6667 58.3333C46.6667 57.4133 45.92 56.6667 45 56.6667C44.08 56.6667 43.3333 57.4133 43.3333 58.3333C43.3333 59.2533 44.08 60 45 60C45.92 60 46.6667 59.2533 46.6667 58.3333ZM42.0833 54.1667C42.0833 53.4767 41.5233 52.9167 40.8333 52.9167C40.1433 52.9167 39.5833 53.4767 39.5833 54.1667C39.5833 54.8567 40.1433 55.4167 40.8333 55.4167C41.5233 55.4167 42.0833 54.8567 42.0833 54.1667ZM54.1667 55C54.1667 60.0633 50.0617 64.1667 45 64.1667C39.9367 64.1667 35.8333 60.0633 35.8333 55C35.8333 49.9367 39.9367 45.8333 45 45.8333C50.0617 45.8333 54.1667 49.9367 54.1667 55ZM70 32.3567L67.6433 30L51.88 45.7683L54.2367 48.125L70 32.3567ZM67.6683 38.2683L70 40.625L64.56 46.0883C61.975 48.6733 60.3333 53.1917 59.8917 56.8217C59.0083 64.1183 52.7933 70 45 70C36.715 70 30 63.285 30 55C30 47.22 35.8717 40.9917 43.1767 40.105C46.8167 39.6633 51.325 38.03 53.9167 35.4367L59.38 30L61.7367 32.3317L56.275 37.7933C53.18 40.89 47.935 42.8867 43.5783 43.4133C37.7383 44.1233 33.3333 49.1033 33.3333 55C33.3333 61.4333 38.5667 66.6667 45 66.6667C48.2033 66.6667 51.1367 65.3667 53.26 63.2417C58.58 57.9217 54.7017 51.2317 62.2033 43.73L67.6683 38.2683V38.2683Z" fill="#323232"/>
</svg>
