<svg width="100" height="100" viewBox="0 0 100 100" fill="none" xmlns="http://www.w3.org/2000/svg">
<path d="M1.5 50C1.5 23.2142 23.2142 1.5 50 1.5C76.7858 1.5 98.5 23.2142 98.5 50C98.5 76.7858 76.7858 98.5 50 98.5C23.2142 98.5 1.5 76.7858 1.5 50Z" fill="white" stroke="#2680EB" stroke-width="3"/>
<path fill-rule="evenodd" clip-rule="evenodd" d="M70.6661 49.753C70.6661 53.9846 67.6812 59.3362 62.3329 61.3578V57.7579C67.5895 54.7079 68.9478 47.333 64.9212 47.333H62.3329V43.9998H65.5195C69.0928 43.9998 70.6661 46.5564 70.6661 49.753V49.753ZM57.5896 41.1548C56.5447 41.1548 55.6163 40.6615 55.0247 39.8948L54.273 40.4215C51.7364 42.3848 54.0847 45.9264 54.2563 47.628C54.4263 49.2563 53.4147 50.4813 51.8264 50.4813C50.2764 50.4813 49.3681 49.1713 49.4914 47.628C49.6214 45.9981 52.0947 42.7648 49.3531 40.2315L48.3148 39.2848C47.6065 40.1132 46.5548 40.6398 45.3798 40.6398C44.3715 40.6398 43.4549 40.2548 42.7665 39.6215C42.1765 40.4331 41.2215 40.9615 40.1416 40.9615C35.615 40.9615 35.4466 34.4799 40.1416 34.4799C40.8049 34.4799 41.4249 34.6799 41.9365 35.0232C42.5765 33.7716 43.8748 32.9132 45.3781 32.9132C46.3631 32.9132 47.2631 33.2832 47.9448 33.8899C48.7681 32.5333 50.2614 31.6249 51.9647 31.6249C54.0564 31.6249 55.8313 32.9916 56.4396 34.8832C56.7946 34.7466 57.1813 34.6732 57.588 34.6732C59.3746 34.6732 60.8263 36.1249 60.8263 37.9132C60.8263 39.7015 59.3779 41.1548 57.5896 41.1548V41.1548ZM45.6665 63.9995H42.3332V42.8014C43.4532 43.5048 44.8598 43.4781 45.6665 43.2464V63.9995ZM60.6663 64.3728V43.0864C62.5096 42.0965 63.4562 40.1498 63.4562 37.9132C63.4562 34.7899 61.0013 32.2283 57.923 32.0549C56.643 30.275 54.2214 29 51.6914 29C50.0731 29 48.7248 29.5367 47.3881 30.6066C45.2348 29.9033 42.8099 30.3683 41.0632 31.9266C37.4716 31.3566 34 33.9999 34 37.7615C34 40.0882 35.365 42.0631 37.3333 43.0114V64.3728C37.3333 65.4794 36.7733 66.3778 35.6666 66.3778V68.9994H62.3329V66.3778C61.2262 66.3778 60.6663 65.4794 60.6663 64.3728V64.3728Z" fill="#323232"/>
</svg>
