<svg width="100" height="100" viewBox="0 0 100 100" fill="none" xmlns="http://www.w3.org/2000/svg">
<path fill-rule="evenodd" clip-rule="evenodd" d="M0 50C0 22.3858 22.3858 0 50 0C77.6142 0 100 22.3858 100 50C100 77.6142 77.6142 100 50 100C22.3858 100 0 77.6142 0 50Z" fill="white"/>
<path fill-rule="evenodd" clip-rule="evenodd" d="M60.6679 32.6585C57.4063 30.7685 54.5997 29.8835 52.2814 30.0119C48.7931 30.2069 45.7265 32.0668 46.2465 38.1618C45.5898 34.3835 43.2182 31.1985 40.4132 31.7135C36.6899 32.3968 37.6649 37.2168 38.0216 41.2234C38.3399 44.815 38.7016 48.8866 36.8549 52.0599L32 60.3781L48.8497 69.9996L53.6947 61.6931C56.0763 57.6348 58.7863 55.6415 61.4112 53.7115C63.1912 52.3999 68.6661 48.7149 68.6661 43.39C68.6661 38.9817 64.9145 35.1201 60.6679 32.6585ZM47.6348 65.458L36.5833 59.1464L38.9016 55.1732L49.9531 61.4847L47.6348 65.458Z" fill="#323232"/>
</svg>
