<svg width="100" height="100" viewBox="0 0 100 100" fill="none" xmlns="http://www.w3.org/2000/svg">
<path d="M1.5 50C1.5 23.2142 23.2142 1.5 50 1.5C76.7858 1.5 98.5 23.2142 98.5 50C98.5 76.7858 76.7858 98.5 50 98.5C23.2142 98.5 1.5 76.7858 1.5 50Z" fill="white" stroke="#2680EB" stroke-width="3"/>
<path fill-rule="evenodd" clip-rule="evenodd" d="M35.1133 55.8845C30.0778 55.8533 26 51.9178 26 47.0622C26 42.7267 29.2511 39.1244 33.5356 38.3844C33.8889 32.04 39.3244 27 46 27C50.9667 27 55.24 29.7956 57.2511 33.84C55.6911 34.0267 54.2044 34.42 52.8022 34.9956C51.6133 33.0267 49.5489 31.4444 46 31.4444C37.3956 31.4444 37.4933 40.3889 37.7755 42.16C35.4111 42.2822 30.4444 42.7489 30.4444 47.0622C30.4444 49.4778 32.5622 51.4445 35.1667 51.4445H36.7978C35.98 52.7956 35.3978 54.2889 35.1133 55.8845ZM59.3333 38.1111C52.6578 38.1111 47.2222 43.1511 46.8689 49.4956C42.5844 50.2356 39.3333 53.8378 39.3333 58.1733C39.3333 63.0467 43.44 67 48.5 67H70.1667C75.2267 67 79.3333 63.0467 79.3333 58.1733C79.3333 53.8378 76.0822 50.2356 71.7978 49.4956C71.4444 43.1511 66.0089 38.1111 59.3333 38.1111H59.3333Z" fill="#323232"/>
</svg>
