<svg xmlns="http://www.w3.org/2000/svg" width="36.666" height="39.999" viewBox="0 0 36.666 39.999">
  <path id="iconmonstr-beer-3" d="M27.666,35.373V14.086a5.612,5.612,0,0,0,2.79-5.173,5.876,5.876,0,0,0-5.533-5.858A7.867,7.867,0,0,0,18.691,0a6.593,6.593,0,0,0-4.3,1.607,6.489,6.489,0,0,0-6.325,1.32A6.027,6.027,0,0,0,1,8.762a5.819,5.819,0,0,0,3.333,5.25V35.373c0,1.107-.56,2-1.667,2V40H29.333V37.378C28.226,37.378,27.666,36.479,27.666,35.373Zm-15-.373H9.333V13.8a4.387,4.387,0,0,0,3.333.445ZM24.59,12.155a3.231,3.231,0,0,1-2.565-1.26l-.752.527c-2.537,1.963-.188,5.5-.017,7.207a2.421,2.421,0,1,1-4.765,0c.13-1.63,2.6-4.863-.138-7.4l-1.038-.947a3.859,3.859,0,0,1-5.548.337,3.238,3.238,0,0,1-2.625,1.34,3.248,3.248,0,1,1,0-6.482,3.216,3.216,0,0,1,1.795.543A3.861,3.861,0,0,1,14.945,4.89a4.7,4.7,0,0,1,8.495.993,3.186,3.186,0,0,1,1.148-.21,3.241,3.241,0,0,1,0,6.482Zm13.076,8.6a13.085,13.085,0,0,1-8.333,11.6v-3.6c5.257-3.05,6.615-10.425,2.588-10.425H29.333V15H32.52c3.573,0,5.147,2.557,5.147,5.753Z" transform="translate(-1)" fill="#323232"/>
</svg>
