<svg xmlns="http://www.w3.org/2000/svg" width="36.666" height="40" viewBox="0 0 36.666 40">
  <path id="iconmonstr-boxing-1" d="M16.635,35.458,5.583,29.146,7.9,25.173l11.051,6.312Zm13.033-32.8C26.406.769,23.6-.116,21.281.012c-3.488.195-6.555,2.055-6.035,8.15C14.59,4.383,12.218,1.2,9.413,1.714c-3.723.683-2.748,5.5-2.392,9.51.318,3.592.68,7.663-1.167,10.837L1,30.378,17.85,40l4.845-8.307a24.94,24.94,0,0,1,7.717-7.982c1.78-1.312,7.255-5,7.255-10.322,0-4.408-3.752-8.27-8-10.732" transform="translate(-1 0)" fill="#323232" fill-rule="evenodd"/>
</svg>
